<svg width="703" height="126" viewBox="0 0 703 126" fill="none" xmlns="http://www.w3.org/2000/svg">
<path d="M48.7456 0H82.9352L131.512 125.939H95.1216L88.0128 103.963H43.6679L36.3899 125.939H0L48.7456 0ZM79.3808 76.0374L65.8404 36.5047L52.4692 76.0374H79.3808Z" fill="#001529"/>
<path d="M150.2 31.2897H114.825V0H219.425V31.2897H184.051V126H150.2V31.2897Z" fill="#001529"/>
<path d="M214.948 96.5H247.953V125.939H214.948V96.5Z" fill="#001529"/>
<path d="M306.703 126C292.711 126 281.709 122.972 273.698 116.916C265.799 110.86 261.342 102.112 260.327 90.6729C260.214 89.5514 260.158 87.0841 260.158 83.271H294.516C294.516 87.8692 295.814 91.2337 298.409 93.3645C301.117 95.3832 305.744 96.3925 312.288 96.3925H314.658C319.961 96.3925 324.023 95.8318 326.844 94.7103C329.665 93.4766 331.076 91.3458 331.076 88.3178C331.076 85.7383 330.173 83.7196 328.367 82.2617C326.675 80.8037 323.91 79.6822 320.074 78.8972L296.209 73.514C288.198 71.7196 281.653 69.5327 276.575 66.9533C271.498 64.2617 267.605 60.5047 264.897 55.6822C262.189 50.8598 260.835 44.6355 260.835 37.0094C260.835 24.6729 264.897 15.4206 273.021 9.25234C281.145 3.08411 292.316 0 306.534 0H316.689C331.019 0 342.246 3.25234 350.371 9.757C358.495 16.2617 362.726 25.7383 363.065 38.1869V42.5607H328.706C328.706 38.0748 327.465 34.7664 324.982 32.6355C322.5 30.5047 318.325 29.4393 312.457 29.4393H310.596C305.857 29.4393 302.133 30.0561 299.425 31.2897C296.83 32.4112 295.532 34.5421 295.532 37.6822C295.532 42.2804 299.199 45.4206 306.534 47.1028L330.399 52.3178C338.297 54.1122 344.785 56.3551 349.863 59.0467C355.053 61.7383 359.003 65.4953 361.711 70.3178C364.419 75.1402 365.773 81.3645 365.773 88.9907C365.773 101.327 361.654 110.579 353.417 116.748C345.293 122.916 334.179 126 320.074 126H306.703Z" fill="#001529"/>
<path d="M442.602 0C450.5 0 457.44 1.68224 463.42 5.04673C469.401 8.29907 474.027 12.9533 477.299 19.0094C480.571 25.0654 482.208 32.0748 482.208 40.0374V48.9533C482.208 57.2523 480.571 64.5421 477.299 70.8224C474.027 77.1028 469.401 81.9813 463.42 85.4579C457.44 88.9346 450.557 90.6729 442.771 90.6729H411.628V125.939H377.946V0H442.602ZM411.12 59.8879H435.324C439.612 59.8879 442.884 58.7103 445.141 56.3551C447.51 54 448.695 50.6355 448.695 46.2617V43.7383C448.695 39.2523 447.51 35.8879 445.141 33.6449C442.884 31.2897 439.555 30.1122 435.154 30.1122H411.12V59.8879Z" fill="#001529"/>
<path d="M492.822 0H582.527V29.271H526.334V48.6168H577.111V77.0467H526.334V96.3318H583.543V125.939H492.822V0Z" fill="#001529"/>
<path d="M638.166 126C628.8 126 620.507 123.925 613.285 119.776C606.177 115.626 600.648 109.794 596.698 102.28C592.749 94.7664 590.774 86.0748 590.774 76.2056V49.7944C590.774 39.9252 592.749 31.2336 596.698 23.7196C600.648 16.2056 606.177 10.3738 613.285 6.2243C620.507 2.07477 628.8 0 638.166 0H655.43C664.908 0 673.202 2.07477 680.31 6.2243C687.532 10.2617 693.061 16.2056 696.897 24.0561C700.847 31.7944 702.821 41.0467 702.821 51.8131H669.14C669.027 44.1869 667.447 38.8037 664.4 35.6636C661.467 32.5234 656.728 30.9533 650.183 30.9533H643.413C636.868 30.9533 632.073 32.6355 629.026 36C626.092 39.3645 624.625 44.8037 624.625 52.3178V73.6823C624.625 81.1963 626.092 86.6355 629.026 90C632.073 93.2523 636.868 94.8785 643.413 94.8785H650.183C656.84 94.8785 661.636 93.3084 664.57 90.1682C667.503 86.9159 669.027 81.5327 669.14 74.0187H702.821C702.821 84.6729 700.847 93.9252 696.897 101.776C693.061 109.514 687.532 115.514 680.31 119.776C673.202 123.925 664.908 126 655.43 126H638.166Z" fill="#001529"/>
</svg>
