<svg width="45" height="28" viewBox="0 0 45 28" fill="none" xmlns="http://www.w3.org/2000/svg">
<path d="M4.87431 0H8.29302L13.1503 12.593H9.51157L8.80075 10.3955H4.36658L3.63883 12.593H0.000102997L4.87431 0ZM7.93761 7.60319L6.58366 3.6502L5.24664 7.60319H7.93761Z" fill="white"/>
<path d="M15.019 3.12875H11.4818V0H21.941V3.12875H18.4039V12.5991H15.019V3.12875Z" fill="white"/>
<path d="M21.4933 9.6493H24.7936V12.593H21.4933V9.6493Z" fill="white"/>
<path d="M4.65419 28C3.25511 28 2.15503 27.6972 1.35395 27.0917C0.564147 26.4861 0.118472 25.6114 0.0169258 24.4675C0.00564293 24.3554 0 24.1087 0 23.7274H3.43564C3.43564 24.1872 3.56539 24.5236 3.8249 24.7367C4.09569 24.9385 4.55829 25.0395 5.21269 25.0395H5.44963C5.97993 25.0395 6.38611 24.9834 6.66819 24.8713C6.95026 24.7479 7.09129 24.5348 7.09129 24.232C7.09129 23.9741 7.00103 23.7723 6.8205 23.6265C6.65126 23.4807 6.37483 23.3686 5.99121 23.2901L3.60488 22.7518C2.8038 22.5724 2.14939 22.3537 1.64166 22.0958C1.13393 21.8266 0.74467 21.4509 0.473881 20.9687C0.203092 20.4865 0.0676975 19.8641 0.0676975 19.1016C0.0676975 17.868 0.473882 16.9429 1.28625 16.3261C2.09862 15.7093 3.21562 15.4009 4.63726 15.4009H5.65273C7.08565 15.4009 8.2083 15.7261 9.02066 16.3765C9.83303 17.027 10.2561 17.9746 10.29 19.2193V19.6567H6.85435C6.85435 19.2081 6.73024 18.8773 6.48202 18.6642C6.23379 18.4512 5.81633 18.3446 5.22962 18.3446H5.04345C4.56957 18.3446 4.19723 18.4063 3.92644 18.5297C3.66694 18.6418 3.53719 18.8549 3.53719 19.1689C3.53719 19.6286 3.90388 19.9426 4.63726 20.1109L7.0236 20.6323C7.8134 20.8117 8.46216 21.036 8.96989 21.3052C9.48891 21.5743 9.88381 21.95 10.1546 22.4322C10.4254 22.9144 10.5608 23.5368 10.5608 24.2993C10.5608 25.5329 10.149 26.4581 9.32531 27.0748C8.51294 27.6916 7.40157 28 5.99121 28H4.65419Z" fill="white"/>
<path d="M18.2431 15.4009C19.0329 15.4009 19.7268 15.5691 20.3248 15.9055C20.9228 16.2308 21.3854 16.6961 21.7126 17.3017C22.0398 17.9073 22.2034 18.6082 22.2034 19.4044V20.2959C22.2034 21.1257 22.0398 21.8547 21.7126 22.4826C21.3854 23.1106 20.9228 23.5984 20.3248 23.9461C19.7268 24.2937 19.0385 24.4675 18.26 24.4675H15.1459V27.9939H11.778V15.4009H18.2431ZM15.0952 21.3893H17.5154C17.9441 21.3893 18.2713 21.2715 18.497 21.036C18.7339 20.8005 18.8524 20.4641 18.8524 20.0267V19.7744C18.8524 19.3259 18.7339 18.9894 18.497 18.7652C18.2713 18.5297 17.9385 18.4119 17.4984 18.4119H15.0952V21.3893Z" fill="white"/>
<path d="M23.2647 15.4009H32.2346V18.3278H26.6157V20.2622H31.693V23.105H26.6157V25.0334H32.3362V27.9939H23.2647V15.4009Z" fill="white"/>
<path d="M37.7981 28C36.8616 28 36.0323 27.7925 35.3102 27.3776C34.5994 26.9627 34.0465 26.3796 33.6516 25.6282C33.2567 24.8769 33.0593 24.0078 33.0593 23.0209V20.38C33.0593 19.3931 33.2567 18.524 33.6516 17.7727C34.0465 17.0214 34.5994 16.4382 35.3102 16.0233C36.0323 15.6084 36.8616 15.4009 37.7981 15.4009H39.5244C40.4721 15.4009 41.3014 15.6084 42.0123 16.0233C42.7344 16.427 43.2872 17.0214 43.6708 17.8063C44.0657 18.5801 44.2632 19.5053 44.2632 20.5818H40.8953C40.884 19.8193 40.726 19.281 40.4214 18.967C40.128 18.653 39.6541 18.496 38.9997 18.496H38.3228C37.6684 18.496 37.1888 18.6642 36.8842 19.0007C36.5908 19.3371 36.4441 19.881 36.4441 20.6323V22.7686C36.4441 23.5199 36.5908 24.0638 36.8842 24.4003C37.1888 24.7255 37.6684 24.8881 38.3228 24.8881H38.9997C39.6654 24.8881 40.1449 24.7311 40.4383 24.4171C40.7317 24.0919 40.884 23.5536 40.8953 22.8022H44.2632C44.2632 23.8676 44.0657 24.7928 43.6708 25.5777C43.2872 26.3515 42.7344 26.9515 42.0123 27.3776C41.3014 27.7925 40.4721 28 39.5244 28H37.7981Z" fill="white"/>
</svg>
