<svg width="80" height="13" viewBox="0 0 80 13" fill="none" xmlns="http://www.w3.org/2000/svg">
<path d="M4.87421 0H8.29292L13.1502 12.593H9.51147L8.80065 10.3955H4.36648L3.63873 12.593H0L4.87421 0ZM7.93751 7.60319L6.58356 3.6502L5.24654 7.60319H7.93751Z" fill="white"/>
<path d="M15.0189 3.12875H11.4817V0H21.9409V3.12875H18.4037V12.5991H15.0189V3.12875Z" fill="white"/>
<path d="M21.4932 9.6493H24.7935V12.593H21.4932V9.6493Z" fill="white"/>
<path d="M30.6681 12.5991C29.269 12.5991 28.1689 12.2963 27.3678 11.6907C26.578 11.0852 26.1323 10.2105 26.0308 9.06664C26.0195 8.95449 26.0139 8.70778 26.0139 8.3265H29.4495C29.4495 8.78628 29.5793 9.12271 29.8388 9.33577C30.1096 9.53763 30.5722 9.63856 31.2266 9.63856H31.4635C31.9938 9.63856 32.4 9.58249 32.6821 9.47034C32.9641 9.34699 33.1052 9.13392 33.1052 8.83114C33.1052 8.57321 33.0149 8.37136 32.8344 8.22557C32.6651 8.07979 32.3887 7.96765 32.0051 7.88915L29.6188 7.35087C28.8177 7.17144 28.1633 6.95277 27.6555 6.69484C27.1478 6.4257 26.7585 6.05003 26.4878 5.56782C26.217 5.08561 26.0816 4.46323 26.0816 3.70067C26.0816 2.46711 26.4878 1.54194 27.3001 0.925167C28.1125 0.308389 29.2295 0 30.6511 0H31.6666C33.0995 0 34.2222 0.32521 35.0345 0.97563C35.8469 1.62605 36.27 2.57365 36.3039 3.81842V4.25577H32.8682C32.8682 3.8072 32.7441 3.47638 32.4959 3.26332C32.2477 3.05025 31.8302 2.94371 31.2435 2.94371H31.0573C30.5834 2.94371 30.2111 3.00539 29.9403 3.12875C29.6808 3.24089 29.5511 3.45396 29.5511 3.76795C29.5511 4.22773 29.9178 4.54173 30.6511 4.70994L33.0375 5.2314C33.8273 5.41082 34.476 5.63511 34.9838 5.90425C35.5028 6.17339 35.8977 6.54906 36.1685 7.03127C36.4393 7.51348 36.5747 8.13586 36.5747 8.89842C36.5747 10.132 36.1628 11.0571 35.3392 11.6739C34.5268 12.2907 33.4154 12.5991 32.0051 12.5991H30.6681Z" fill="white"/>
<path d="M44.257 0C45.0468 0 45.7407 0.168212 46.3387 0.504637C46.9367 0.829847 47.3993 1.29523 47.7265 1.9008C48.0537 2.50636 48.2173 3.20724 48.2173 4.00345V4.89497C48.2173 5.72482 48.0537 6.45374 47.7265 7.08173C47.3993 7.70972 46.9367 8.19754 46.3387 8.54518C45.7407 8.89282 45.0524 9.06664 44.2739 9.06664H41.1598V12.593H37.7919V0H44.257ZM41.1091 5.98835H43.5292C43.958 5.98835 44.2852 5.8706 44.5108 5.63511C44.7478 5.39961 44.8662 5.06319 44.8662 4.62583V4.37352C44.8662 3.92495 44.7478 3.58853 44.5108 3.36424C44.2852 3.12875 43.9523 3.011 43.5123 3.011H41.1091V5.98835Z" fill="white"/>
<path d="M49.2786 0H58.2485V2.92689H52.6296V4.86133H57.7069V7.70412H52.6296V9.63248H58.35V12.593H49.2786V0Z" fill="white"/>
<path d="M63.812 12.5991C62.8755 12.5991 62.0462 12.3916 61.3241 11.9767C60.6133 11.5618 60.0604 10.9786 59.6655 10.2273C59.2706 9.47595 59.0732 8.60685 59.0732 7.62001V4.97908C59.0732 3.99224 59.2706 3.12314 59.6655 2.37179C60.0604 1.62044 60.6133 1.03731 61.3241 0.622385C62.0462 0.207462 62.8755 0 63.812 0H65.5383C66.486 0 67.3153 0.207462 68.0261 0.622385C68.7482 1.02609 69.3011 1.62044 69.6847 2.40543C70.0796 3.17921 70.2771 4.10438 70.2771 5.18093H66.9091C66.8978 4.41837 66.7399 3.88009 66.4352 3.5661C66.1419 3.2521 65.668 3.0951 65.0136 3.0951H64.3366C63.6822 3.0951 63.2027 3.26332 62.8981 3.59974C62.6047 3.93616 62.458 4.48005 62.458 5.2314V7.36769C62.458 8.11904 62.6047 8.66293 62.8981 8.99935C63.2027 9.32456 63.6822 9.48717 64.3366 9.48717H65.0136C65.6793 9.48717 66.1588 9.33017 66.4522 9.01617C66.7455 8.69096 66.8978 8.15268 66.9091 7.40134H70.2771C70.2771 8.46668 70.0796 9.39185 69.6847 10.1768C69.3011 10.9506 68.7482 11.5506 68.0261 11.9767C67.3153 12.3916 66.486 12.5991 65.5383 12.5991H63.812Z" fill="white"/>
<path d="M71.9948 9.81238H80V12.5711H71.9948V9.81238Z" fill="white"/>
</svg>
